ply
format ascii 1.0
element vertex 244
property float x
property float y
property float z
property uchar red
property uchar green
property uchar blue
property uchar alpha
element face 484
property list uchar int vertex_indices
end_header
-2.455265e+000 -5.028530e+001 -1.371781e+003 255 128 0 153
-5.020634e-001 -5.028530e+001 -1.371504e+003 255 128 0 153
-4.408466e+000 -4.833210e+001 -1.371210e+003 255 128 0 153
-2.455265e+000 -4.833210e+001 -1.372289e+003 255 128 0 153
-5.020634e-001 -4.833210e+001 -1.371360e+003 255 128 0 153
-4.408466e+000 -4.442571e+001 -1.371134e+003 255 128 0 153
-2.455265e+000 -4.442571e+001 -1.372229e+003 255 128 0 153
-4.408466e+000 -4.051931e+001 -1.371134e+003 255 128 0 153
-2.455265e+000 -4.051931e+001 -1.372229e+003 255 128 0 153
-5.020634e-001 -3.856610e+001 -1.371504e+003 255 128 0 153
-2.455265e+000 -3.661290e+001 -1.372042e+003 255 128 0 153
-5.020634e-001 -3.661290e+001 -1.371575e+003 255 128 0 153
-4.408466e+000 -5.419170e+001 -1.363557e+003 255 128 0 153
-5.020634e-001 -5.419170e+001 -1.365267e+003 255 128 0 153
-6.361667e+000 -5.223850e+001 -1.365203e+003 255 128 0 153
-2.455265e+000 -5.158744e+001 -1.371057e+003 255 128 0 153
-2.455265e+000 -5.223850e+001 -1.369628e+003 255 128 0 153
-5.020634e-001 -5.126191e+001 -1.371057e+003 255 128 0 153
3.404339e+000 -5.223850e+001 -1.361057e+003 255 128 0 153
-8.314869e+000 -5.028530e+001 -1.362948e+003 255 128 0 153
-4.753147e+000 -5.028530e+001 -1.371057e+003 255 128 0 153
-6.361667e+000 -5.028530e+001 -1.367273e+003 255 128 0 153
1.489986e-001 -5.028530e+001 -1.371057e+003 255 128 0 153
1.451138e+000 -5.028530e+001 -1.367527e+003 255 128 0 153
3.404339e+000 -5.028530e+001 -1.363279e+003 255 128 0 153
-6.361667e+000 -4.637889e+001 -1.366771e+003 255 128 0 153
1.451138e+000 -4.637889e+001 -1.368057e+003 255 128 0 153
3.524593e-001 -4.442571e+001 -1.371057e+003 255 128 0 153
1.451138e+000 -4.247251e+001 -1.368153e+003 255 128 0 153
-6.361667e+000 -4.051931e+001 -1.364535e+003 255 128 0 153
3.524593e-001 -4.051931e+001 -1.371057e+003 255 128 0 153
-4.523365e+000 -3.856610e+001 -1.371057e+003 255 128 0 153
-4.408466e+000 -3.758951e+001 -1.371057e+003 255 128 0 153
2.303890e-001 -3.856610e+001 -1.371057e+003 255 128 0 153
1.451138e+000 -3.856610e+001 -1.364807e+003 255 128 0 153
-4.278248e+000 -3.661290e+001 -1.371057e+003 255 128 0 153
-4.408466e+000 -3.661290e+001 -1.369057e+003 255 128 0 153
-2.455265e+000 -3.509375e+001 -1.371057e+003 255 128 0 153
2.575191e-001 -3.661290e+001 -1.371057e+003 255 128 0 153
-5.020634e-001 -3.536995e+001 -1.371057e+003 255 128 0 153
-6.361667e+000 -5.809810e+001 -1.353425e+003 255 128 0 153
-4.408466e+000 -5.809810e+001 -1.355159e+003 255 128 0 153
1.451138e+000 -5.809810e+001 -1.354390e+003 255 128 0 153
3.404339e+000 -5.809810e+001 -1.351846e+003 255 128 0 153
-6.361667e+000 -5.614490e+001 -1.357057e+003 255 128 0 153
-4.408466e+000 -5.614490e+001 -1.359214e+003 255 128 0 153
-5.020634e-001 -5.614490e+001 -1.359945e+003 255 128 0 153
1.451138e+000 -5.473426e+001 -1.361057e+003 255 128 0 153
1.451138e+000 -5.614490e+001 -1.357635e+003 255 128 0 153
-1.026807e+001 -5.419170e+001 -1.355580e+003 255 128 0 153
-6.706348e+000 -5.419170e+001 -1.361057e+003 255 128 0 153
-8.314869e+000 -5.419170e+001 -1.357801e+003 255 128 0 153
3.404339e+000 -5.419170e+001 -1.357642e+003 255 128 0 153
5.357525e+000 -5.419170e+001 -1.355415e+003 255 128 0 153
5.357525e+000 -5.223850e+001 -1.356954e+003 255 128 0 153
-1.222127e+001 -5.028530e+001 -1.354646e+003 255 128 0 153
-1.026807e+001 -5.028530e+001 -1.358749e+003 255 128 0 153
4.380932e+000 -5.028530e+001 -1.361057e+003 255 128 0 153
5.357525e+000 -5.028530e+001 -1.358951e+003 255 128 0 153
7.310711e+000 -5.028530e+001 -1.354741e+003 255 128 0 153
-1.026807e+001 -4.833210e+001 -1.358749e+003 255 128 0 153
4.625103e+000 -4.833210e+001 -1.361057e+003 255 128 0 153
-1.222127e+001 -4.637889e+001 -1.354152e+003 255 128 0 153
5.357525e+000 -4.637889e+001 -1.360057e+003 255 128 0 153
-1.222127e+001 -4.442571e+001 -1.353307e+003 255 128 0 153
-1.026807e+001 -4.442571e+001 -1.357307e+003 255 128 0 153
-8.314869e+000 -4.403507e+001 -1.361057e+003 255 128 0 153
5.357525e+000 -4.442571e+001 -1.359837e+003 255 128 0 153
7.310711e+000 -4.247251e+001 -1.355057e+003 255 128 0 153
-8.314869e+000 -4.051931e+001 -1.357307e+003 255 128 0 153
3.049206e+000 -4.051931e+001 -1.361057e+003 255 128 0 153
5.357525e+000 -4.051931e+001 -1.356511e+003 255 128 0 153
-8.314869e+000 -3.856610e+001 -1.353364e+003 255 128 0 153
-5.902088e+000 -3.856610e+001 -1.361057e+003 255 128 0 153
1.451138e+000 -3.758951e+001 -1.361057e+003 255 128 0 153
3.404339e+000 -3.856610e+001 -1.356351e+003 255 128 0 153
-4.408466e+000 -3.615332e+001 -1.361057e+003 255 128 0 153
8.000759e-001 -3.661290e+001 -1.361057e+003 255 128 0 153
-5.020634e-001 -3.523418e+001 -1.361057e+003 255 128 0 153
-4.408466e+000 -6.395771e+001 -1.342635e+003 255 128 0 153
-5.020634e-001 -6.395771e+001 -1.341914e+003 255 128 0 153
-6.361667e+000 -6.200450e+001 -1.345267e+003 255 128 0 153
-4.408466e+000 -6.200450e+001 -1.346846e+003 255 128 0 153
-2.455265e+000 -6.200450e+001 -1.346771e+003 255 128 0 153
-5.020634e-001 -6.005130e+001 -1.351057e+003 255 128 0 153
-1.222127e+001 -6.005130e+001 -1.342595e+003 255 128 0 153
-1.026807e+001 -6.005130e+001 -1.345057e+003 255 128 0 153
-8.314869e+000 -6.005130e+001 -1.347168e+003 255 128 0 153
-6.361667e+000 -6.005130e+001 -1.348374e+003 255 128 0 153
3.404339e+000 -6.005130e+001 -1.347210e+003 255 128 0 153
5.357525e+000 -6.005130e+001 -1.344646e+003 255 128 0 153
7.310711e+000 -6.005130e+001 -1.341612e+003 255 128 0 153
-1.417447e+001 -5.809810e+001 -1.343307e+003 255 128 0 153
5.357525e+000 -5.668746e+001 -1.351057e+003 255 128 0 153
5.357525e+000 -5.809810e+001 -1.347445e+003 255 128 0 153
7.310711e+000 -5.809810e+001 -1.345057e+003 255 128 0 153
9.263897e+000 -5.809810e+001 -1.341597e+003 255 128 0 153
-1.222127e+001 -5.464244e+001 -1.351057e+003 255 128 0 153
-1.222127e+001 -5.614490e+001 -1.348557e+003 255 128 0 153
7.310711e+000 -5.433121e+001 -1.351057e+003 255 128 0 153
7.310711e+000 -5.614490e+001 -1.347543e+003 255 128 0 153
9.263897e+000 -5.614490e+001 -1.345159e+003 255 128 0 153
-1.612767e+001 -5.419170e+001 -1.344390e+003 255 128 0 153
-1.417447e+001 -5.419170e+001 -1.347372e+003 255 128 0 153
9.263897e+000 -5.419170e+001 -1.346698e+003 255 128 0 153
-1.612767e+001 -5.223850e+001 -1.345580e+003 255 128 0 153
1.121708e+001 -5.223850e+001 -1.344390e+003 255 128 0 153
-1.417447e+001 -5.028530e+001 -1.350530e+003 255 128 0 153
9.263897e+000 -5.028530e+001 -1.350031e+003 255 128 0 153
-1.808088e+001 -4.833210e+001 -1.342109e+003 255 128 0 153
1.317027e+001 -4.833210e+001 -1.342899e+003 255 128 0 153
-1.808088e+001 -4.637889e+001 -1.341569e+003 255 128 0 153
-1.612767e+001 -4.637889e+001 -1.345672e+003 255 128 0 153
-1.417447e+001 -4.637889e+001 -1.349774e+003 255 128 0 153
9.752209e+000 -4.637889e+001 -1.351057e+003 255 128 0 153
-1.612767e+001 -4.442571e+001 -1.344478e+003 255 128 0 153
-1.222127e+001 -4.307349e+001 -1.351057e+003 255 128 0 153
1.121708e+001 -4.442571e+001 -1.347980e+003 255 128 0 153
9.263897e+000 -4.214698e+001 -1.351057e+003 255 128 0 153
1.121708e+001 -4.247251e+001 -1.347109e+003 255 128 0 153
1.317027e+001 -4.247251e+001 -1.343307e+003 255 128 0 153
-1.222127e+001 -4.051931e+001 -1.347057e+003 255 128 0 153
-1.026807e+001 -4.003101e+001 -1.351057e+003 255 128 0 153
7.310711e+000 -3.938851e+001 -1.351057e+003 255 128 0 153
9.263897e+000 -4.051931e+001 -1.348492e+003 255 128 0 153
1.121708e+001 -4.051931e+001 -1.345307e+003 255 128 0 153
1.317027e+001 -4.051931e+001 -1.341320e+003 255 128 0 153
-1.222127e+001 -3.856610e+001 -1.342992e+003 255 128 0 153
5.357525e+000 -3.785585e+001 -1.351057e+003 255 128 0 153
9.263897e+000 -3.856610e+001 -1.345342e+003 255 128 0 153
1.121708e+001 -3.856610e+001 -1.342899e+003 255 128 0 153
-8.314869e+000 -3.661290e+001 -1.344057e+003 255 128 0 153
-6.361667e+000 -3.639588e+001 -1.351057e+003 255 128 0 153
-4.408466e+000 -3.563631e+001 -1.351057e+003 255 128 0 153
1.451138e+000 -3.583162e+001 -1.351057e+003 255 128 0 153
3.404339e+000 -3.661290e+001 -1.349723e+003 255 128 0 153
5.357525e+000 -3.661290e+001 -1.345672e+003 255 128 0 153
7.310711e+000 -3.661290e+001 -1.343557e+003 255 128 0 153
9.263897e+000 -3.661290e+001 -1.341702e+003 255 128 0 153
-4.408466e+000 -6.460877e+001 -1.341057e+003 255 128 0 153
-2.455265e+000 -6.444600e+001 -1.341057e+003 255 128 0 153
-5.020634e-001 -6.428324e+001 -1.341057e+003 255 128 0 153
-1.026807e+001 -6.200450e+001 -1.341057e+003 255 128 0 153
-6.361667e+000 -6.384281e+001 -1.341057e+003 255 128 0 153
6.698573e-001 -6.395771e+001 -1.341057e+003 255 128 0 153
-5.020634e-001 -6.395771e+001 -1.340827e+003 255 128 0 153
3.404339e+000 -6.292971e+001 -1.341057e+003 255 128 0 153
-4.408466e+000 -6.200450e+001 -1.339590e+003 255 128 0 153
5.357525e+000 -6.176035e+001 -1.341057e+003 255 128 0 153
7.310711e+000 -6.029546e+001 -1.341057e+003 255 128 0 153
-1.300255e+001 -6.005130e+001 -1.341057e+003 255 128 0 153
-1.222127e+001 -6.005130e+001 -1.340609e+003 255 128 0 153
-8.314869e+000 -6.005130e+001 -1.339590e+003 255 128 0 153
-2.455265e+000 -6.005130e+001 -1.338861e+003 255 128 0 153
-5.020634e-001 -6.005130e+001 -1.338909e+003 255 128 0 153
7.310711e+000 -6.005130e+001 -1.340903e+003 255 128 0 153
9.263897e+000 -5.834226e+001 -1.341057e+003 255 128 0 153
-1.515108e+001 -5.809810e+001 -1.341057e+003 255 128 0 153
-1.222127e+001 -5.809810e+001 -1.339590e+003 255 128 0 153
3.404339e+000 -5.809810e+001 -1.338861e+003 255 128 0 153
5.357525e+000 -5.809810e+001 -1.339533e+003 255 128 0 153
7.310711e+000 -5.809810e+001 -1.339824e+003 255 128 0 153
9.508038e+000 -5.809810e+001 -1.341057e+003 255 128 0 153
-1.637183e+001 -5.614490e+001 -1.341057e+003 255 128 0 153
-1.417447e+001 -5.614490e+001 -1.339824e+003 255 128 0 153
-8.314869e+000 -5.614490e+001 -1.338288e+003 255 128 0 153
-6.361667e+000 -5.614490e+001 -1.337901e+003 255 128 0 153
-2.455265e+000 -5.614490e+001 -1.337587e+003 255 128 0 153
-5.020634e-001 -5.614490e+001 -1.337621e+003 255 128 0 153
-1.612767e+001 -5.419170e+001 -1.340071e+003 255 128 0 153
-4.408466e+000 -5.419170e+001 -1.337181e+003 255 128 0 153
-5.020634e-001 -5.419170e+001 -1.337240e+003 255 128 0 153
1.451138e+000 -5.419170e+001 -1.337654e+003 255 128 0 153
5.357525e+000 -5.419170e+001 -1.338455e+003 255 128 0 153
7.310711e+000 -5.419170e+001 -1.338814e+003 255 128 0 153
1.224510e+001 -5.419170e+001 -1.341057e+003 255 128 0 153
-1.612767e+001 -5.223850e+001 -1.339764e+003 255 128 0 153
-1.417447e+001 -5.223850e+001 -1.338909e+003 255 128 0 153
-8.314869e+000 -5.223850e+001 -1.337425e+003 255 128 0 153
-4.408466e+000 -5.223850e+001 -1.336875e+003 255 128 0 153
-2.455265e+000 -5.223850e+001 -1.336671e+003 255 128 0 153
-5.020634e-001 -5.223850e+001 -1.336982e+003 255 128 0 153
3.404339e+000 -5.223850e+001 -1.337621e+003 255 128 0 153
1.317027e+001 -5.126191e+001 -1.341057e+003 255 128 0 153
-1.856917e+001 -5.028530e+001 -1.341057e+003 255 128 0 153
-1.026807e+001 -5.028530e+001 -1.337621e+003 255 128 0 153
5.357525e+000 -5.028530e+001 -1.337689e+003 255 128 0 153
1.121708e+001 -5.028530e+001 -1.339705e+003 255 128 0 153
1.362983e+001 -5.028530e+001 -1.341057e+003 255 128 0 153
-1.856917e+001 -4.833210e+001 -1.341057e+003 255 128 0 153
-1.612767e+001 -4.833210e+001 -1.339705e+003 255 128 0 153
-6.361667e+000 -4.833210e+001 -1.336901e+003 255 128 0 153
-4.408466e+000 -4.833210e+001 -1.336503e+003 255 128 0 153
1.451138e+000 -4.833210e+001 -1.336622e+003 255 128 0 153
7.310711e+000 -4.833210e+001 -1.338051e+003 255 128 0 153
9.263897e+000 -4.833210e+001 -1.338721e+003 255 128 0 153
-1.831066e+001 -4.637889e+001 -1.341057e+003 255 128 0 153
-1.808088e+001 -4.582083e+001 -1.341057e+003 255 128 0 153
-1.808088e+001 -4.637889e+001 -1.340903e+003 255 128 0 153
-1.417447e+001 -4.637889e+001 -1.338958e+003 255 128 0 153
-1.222127e+001 -4.637889e+001 -1.338371e+003 255 128 0 153
-5.020634e-001 -4.637889e+001 -1.336848e+003 255 128 0 153
3.404339e+000 -4.637889e+001 -1.336875e+003 255 128 0 153
9.263897e+000 -4.637889e+001 -1.338498e+003 255 128 0 153
1.463517e+001 -4.637889e+001 -1.341057e+003 255 128 0 153
-1.753832e+001 -4.442571e+001 -1.341057e+003 255 128 0 153
-1.026807e+001 -4.442571e+001 -1.338329e+003 255 128 0 153
-4.408466e+000 -4.442571e+001 -1.337300e+003 255 128 0 153
7.310711e+000 -4.442571e+001 -1.337901e+003 255 128 0 153
1.451310e+001 -4.442571e+001 -1.341057e+003 255 128 0 153
-1.612767e+001 -4.195165e+001 -1.341057e+003 255 128 0 153
-1.417447e+001 -4.247251e+001 -1.339705e+003 255 128 0 153
1.451138e+000 -4.247251e+001 -1.337829e+003 255 128 0 153
3.404339e+000 -4.247251e+001 -1.337829e+003 255 128 0 153
1.121708e+001 -4.247251e+001 -1.339533e+003 255 128 0 153
1.420433e+001 -4.247251e+001 -1.341057e+003 255 128 0 153
1.317027e+001 -4.247251e+001 -1.340400e+003 255 128 0 153
-1.417447e+001 -3.990892e+001 -1.341057e+003 255 128 0 153
-1.417447e+001 -4.051931e+001 -1.340681e+003 255 128 0 153
-8.314869e+000 -4.051931e+001 -1.338861e+003 255 128 0 153
-6.361667e+000 -4.051931e+001 -1.338586e+003 255 128 0 153
-5.020634e-001 -4.051931e+001 -1.338455e+003 255 128 0 153
7.310711e+000 -4.051931e+001 -1.338721e+003 255 128 0 153
9.263897e+000 -4.051931e+001 -1.339209e+003 255 128 0 153
-1.222127e+001 -3.783365e+001 -1.341057e+003 255 128 0 153
-1.026807e+001 -3.695758e+001 -1.341057e+003 255 128 0 153
-1.026807e+001 -3.856610e+001 -1.340071e+003 255 128 0 153
-2.455265e+000 -3.856610e+001 -1.339209e+003 255 128 0 153
1.451138e+000 -3.856610e+001 -1.339209e+003 255 128 0 153
9.263897e+000 -3.856610e+001 -1.339824e+003 255 128 0 153
1.197667e+001 -3.856610e+001 -1.341057e+003 255 128 0 153
1.121708e+001 -3.780652e+001 -1.341057e+003 255 128 0 153
-8.314869e+000 -3.596184e+001 -1.341057e+003 255 128 0 153
-6.361667e+000 -3.661290e+001 -1.340332e+003 255 128 0 153
-2.455265e+000 -3.511928e+001 -1.341057e+003 255 128 0 153
-2.455265e+000 -3.661290e+001 -1.340135e+003 255 128 0 153
1.451138e+000 -3.511928e+001 -1.341057e+003 255 128 0 153
3.404339e+000 -3.511928e+001 -1.341057e+003 255 128 0 153
5.357525e+000 -3.514800e+001 -1.341057e+003 255 128 0 153
5.357525e+000 -3.661290e+001 -1.340199e+003 255 128 0 153
7.310711e+000 -3.563631e+001 -1.341057e+003 255 128 0 153
9.564404e+000 -3.661290e+001 -1.341057e+003 255 128 0 153
9.263897e+000 -3.638312e+001 -1.341057e+003 255 128 0 153
9.263897e+000 -3.661290e+001 -1.340903e+003 255 128 0 153
3 15 20 0 
3 15 0 17 
3 17 0 1 
3 22 17 1 
3 0 2 3 
3 0 20 2 
3 1 3 4 
3 1 0 3 
3 22 1 4 
3 3 5 6 
3 3 2 5 
3 4 3 6 
3 4 6 27 
3 6 5 7 
3 6 7 8 
3 27 8 30 
3 27 6 8 
3 8 7 31 
3 30 8 9 
3 30 9 33 
3 10 32 35 
3 10 8 31 
3 10 31 32 
3 9 10 11 
3 9 8 10 
3 33 11 38 
3 33 9 11 
3 35 37 10 
3 10 39 11 
3 10 37 39 
3 39 38 11 
3 45 50 12 
3 45 12 46 
3 46 12 13 
3 46 13 47 
3 14 50 19 
3 12 14 16 
3 12 50 14 
3 13 12 16 
3 13 16 17 
3 47 17 23 
3 47 13 17 
3 47 23 18 
3 14 19 21 
3 16 21 20 
3 14 21 16 
3 16 20 15 
3 16 15 17 
3 23 17 22 
3 18 23 24 
3 18 24 57 
3 21 19 60 
3 20 21 2 
3 23 22 26 
3 26 22 4 
3 24 23 26 
3 57 24 61 
3 21 66 25 
3 21 60 66 
3 2 25 5 
3 2 21 25 
3 61 24 63 
3 26 4 28 
3 28 4 27 
3 24 26 28 
3 63 24 67 
3 29 66 73 
3 29 25 66 
3 5 29 7 
3 5 25 29 
3 24 28 67 
3 28 27 30 
3 67 28 70 
3 31 7 73 
3 73 7 29 
3 28 30 34 
3 34 30 33 
3 70 34 74 
3 70 28 34 
3 31 76 32 
3 73 76 31 
3 32 76 36 
3 35 32 36 
3 33 74 34 
3 33 38 77 
3 33 77 74 
3 76 37 36 
3 78 37 76 
3 36 37 35 
3 39 37 78 
3 78 77 39 
3 39 77 38 
3 41 84 40 
3 84 41 42 
3 84 42 43 
3 44 40 97 
3 41 44 45 
3 41 40 44 
3 41 45 46 
3 42 46 48 
3 42 41 46 
3 43 42 48 
3 43 48 93 
3 44 49 51 
3 44 97 49 
3 44 51 50 
3 44 50 45 
3 46 47 48 
3 52 48 47 
3 93 52 53 
3 93 48 52 
3 93 53 99 
3 55 97 107 
3 49 97 55 
3 51 49 19 
3 19 50 51 
3 47 18 52 
3 54 53 52 
3 54 52 18 
3 99 54 59 
3 99 53 54 
3 49 55 56 
3 19 49 56 
3 54 18 58 
3 58 18 57 
3 59 54 58 
3 99 59 108 
3 55 107 62 
3 62 107 113 
3 56 62 60 
3 56 55 62 
3 19 56 60 
3 58 57 61 
3 59 58 61 
3 59 114 108 
3 59 61 63 
3 62 113 64 
3 64 113 116 
3 60 64 65 
3 60 62 64 
3 66 60 65 
3 59 67 68 
3 59 63 67 
3 114 59 68 
3 65 116 122 
3 65 64 116 
3 65 69 66 
3 73 66 69 
3 68 67 71 
3 114 68 118 
3 69 65 122 
3 70 71 67 
3 72 69 122 
3 69 72 73 
3 75 70 74 
3 71 75 128 
3 71 70 75 
3 68 128 123 
3 71 128 68 
3 123 118 68 
3 132 73 72 
3 73 132 76 
3 74 77 75 
3 75 135 128 
3 133 76 132 
3 78 76 133 
3 78 133 134 
3 78 75 77 
3 78 134 75 
3 134 135 75 
3 139 143 79 
3 139 79 140 
3 141 140 80 
3 144 141 80 
3 143 142 81 
3 81 79 143 
3 82 79 81 
3 140 82 83 
3 140 79 82 
3 80 140 83 
3 80 146 144 
3 80 83 89 
3 80 89 146 
3 146 89 90 
3 148 146 90 
3 85 142 150 
3 86 142 85 
3 142 86 87 
3 81 87 88 
3 81 142 87 
3 82 88 84 
3 81 88 82 
3 82 84 83 
3 89 83 84 
3 148 90 149 
3 149 90 91 
3 92 85 157 
3 86 85 92 
3 157 85 150 
3 87 98 40 
3 86 98 87 
3 87 40 88 
3 40 84 88 
3 89 84 43 
3 94 90 89 
3 94 89 43 
3 91 94 95 
3 91 90 94 
3 91 156 149 
3 91 95 96 
3 91 96 156 
3 162 156 96 
3 103 92 163 
3 163 92 157 
3 86 103 98 
3 86 92 103 
3 43 93 94 
3 100 95 94 
3 100 94 93 
3 96 100 101 
3 96 95 100 
3 162 96 101 
3 102 163 184 
3 103 163 102 
3 98 103 97 
3 97 40 98 
3 93 99 100 
3 104 101 100 
3 104 100 99 
3 101 104 106 
3 101 106 162 
3 175 162 106 
3 105 102 184 
3 103 102 105 
3 97 103 107 
3 103 105 107 
3 104 99 108 
3 106 104 108 
3 106 183 175 
3 106 108 183 
3 109 184 189 
3 105 109 112 
3 105 184 109 
3 107 112 113 
3 107 105 112 
3 183 108 110 
3 188 183 110 
3 109 189 111 
3 111 189 196 
3 112 109 111 
3 108 114 117 
3 110 108 117 
3 188 110 204 
3 196 197 111 
3 115 197 205 
3 115 112 111 
3 115 111 197 
3 113 112 115 
3 204 110 209 
3 115 205 210 
3 113 115 210 
3 117 114 119 
3 119 114 118 
3 110 119 120 
3 110 117 119 
3 209 120 215 
3 209 110 120 
3 217 113 210 
3 116 217 121 
3 116 113 217 
3 122 116 121 
3 124 119 118 
3 125 119 124 
3 120 125 126 
3 120 119 125 
3 215 120 126 
3 127 121 217 
3 121 127 131 
3 121 131 122 
3 129 124 123 
3 123 124 118 
3 125 129 130 
3 125 124 129 
3 125 130 126 
3 126 130 230 
3 217 224 127 
3 127 225 131 
3 127 224 225 
3 72 122 131 
3 132 72 131 
3 128 135 136 
3 136 123 128 
3 137 123 136 
3 129 137 138 
3 129 123 137 
3 130 138 231 
3 129 138 130 
3 231 138 241 
3 231 230 130 
3 225 232 131 
3 232 132 131 
3 133 132 232 
3 133 232 234 
3 134 133 234 
3 134 234 236 
3 134 236 237 
3 134 237 135 
3 135 238 136 
3 135 237 238 
3 136 240 137 
3 136 238 240 
3 137 242 138 
3 137 240 242 
3 242 241 138 
3 140 141 145 
3 141 144 145 
3 139 147 143 
3 139 140 147 
3 140 145 147 
3 147 145 146 
3 146 145 144 
3 142 152 151 
3 142 151 150 
3 142 143 152 
3 143 147 152 
3 152 147 153 
3 153 147 154 
3 147 146 154 
3 154 146 148 
3 148 149 155 
3 151 157 150 
3 151 158 157 
3 151 152 158 
3 158 152 166 
3 152 153 166 
3 153 154 166 
3 154 148 159 
3 159 148 160 
3 148 155 160 
3 160 155 161 
3 162 155 156 
3 161 155 162 
3 156 155 149 
3 157 164 169 
3 157 169 163 
3 157 158 164 
3 158 166 165 
3 166 154 167 
3 167 154 168 
3 154 159 168 
3 168 159 173 
3 159 160 173 
3 160 161 173 
3 163 169 184 
3 165 166 178 
3 166 167 178 
3 178 167 170 
3 170 167 171 
3 167 168 171 
3 171 168 172 
3 168 173 172 
3 172 173 182 
3 173 161 174 
3 175 161 162 
3 169 176 184 
3 169 164 176 
3 176 164 177 
3 164 158 177 
3 158 165 177 
3 178 170 179 
3 170 171 179 
3 179 171 180 
3 180 171 181 
3 171 172 181 
3 172 182 181 
3 173 174 182 
3 161 175 174 
3 174 175 187 
3 184 176 190 
3 176 177 190 
3 177 165 185 
3 165 178 185 
3 179 180 192 
3 180 181 192 
3 192 181 182 
3 182 174 186 
3 186 174 194 
3 188 187 183 
3 183 187 175 
3 184 190 189 
3 190 177 199 
3 199 177 200 
3 177 185 200 
3 185 178 191 
3 178 179 191 
3 179 192 191 
3 192 182 193 
3 194 174 195 
3 174 187 195 
3 189 198 196 
3 189 190 198 
3 191 192 201 
3 192 193 201 
3 201 193 202 
3 193 182 202 
3 182 186 202 
3 186 194 202 
3 194 195 203 
3 195 187 203 
3 187 188 203 
3 203 188 204 
3 197 196 198 
3 198 205 197 
3 190 205 198 
3 190 199 205 
3 205 199 211 
3 199 200 211 
3 211 200 206 
3 200 185 206 
3 185 191 206 
3 191 201 207 
3 201 202 207 
3 202 194 208 
3 194 203 208 
3 203 204 209 
3 205 211 210 
3 191 207 220 
3 220 207 212 
3 207 202 212 
3 212 202 213 
3 202 208 213 
3 208 203 223 
3 223 203 214 
3 203 209 214 
3 214 209 216 
3 216 209 215 
3 211 218 210 
3 210 218 217 
3 218 211 219 
3 211 206 219 
3 206 191 219 
3 219 191 220 
3 220 212 221 
3 212 213 221 
3 213 208 222 
3 208 223 222 
3 214 216 126 
3 216 215 126 
3 218 224 217 
3 219 224 218 
3 224 219 226 
3 219 220 226 
3 220 221 227 
3 227 221 228 
3 221 213 228 
3 213 222 228 
3 222 223 229 
3 223 214 229 
3 214 126 230 
3 225 224 226 
3 226 220 233 
3 220 227 233 
3 233 227 235 
3 227 228 235 
3 228 222 237 
3 237 222 239 
3 222 229 239 
3 239 229 240 
3 240 229 243 
3 243 231 241 
3 243 229 214 
3 243 214 231 
3 230 231 214 
3 232 225 226 
3 232 226 233 
3 232 233 234 
3 234 233 235 
3 234 235 236 
3 236 235 228 
3 236 228 237 
3 238 237 239 
3 238 239 240 
3 242 240 243 
3 241 242 243 
