ply
format ascii 1.0
element vertex 274
property float x
property float y
property float z
property uchar red
property uchar green
property uchar blue
property uchar alpha
element face 544
property list uchar int vertex_indices
end_header
-4.408466e+000 -4.833210e+001 -1.371575e+003 255 255 192 153
-2.455265e+000 -4.833210e+001 -1.371781e+003 255 255 192 153
-5.020634e-001 -4.833210e+001 -1.371645e+003 255 255 192 153
-5.020634e-001 -4.637889e+001 -1.371575e+003 255 255 192 153
-4.408466e+000 -4.442571e+001 -1.371432e+003 255 255 192 153
-2.455265e+000 -4.442571e+001 -1.372466e+003 255 255 192 153
-5.020634e-001 -4.442571e+001 -1.371575e+003 255 255 192 153
-4.408466e+000 -4.051931e+001 -1.371432e+003 255 255 192 153
-2.455265e+000 -4.051931e+001 -1.372466e+003 255 255 192 153
-5.020634e-001 -3.856610e+001 -1.371575e+003 255 255 192 153
-4.408466e+000 -3.661290e+001 -1.371432e+003 255 255 192 153
-2.455265e+000 -3.661290e+001 -1.372466e+003 255 255 192 153
-4.408466e+000 -3.465970e+001 -1.371645e+003 255 255 192 153
-5.020634e-001 -3.465970e+001 -1.371713e+003 255 255 192 153
-4.408466e+000 -5.419170e+001 -1.361987e+003 255 255 192 153
-2.455265e+000 -5.419170e+001 -1.361771e+003 255 255 192 153
-5.020634e-001 -5.419170e+001 -1.361987e+003 255 255 192 153
-6.361667e+000 -5.223850e+001 -1.364227e+003 255 255 192 153
-4.408466e+000 -5.223850e+001 -1.365708e+003 255 255 192 153
1.451138e+000 -5.223850e+001 -1.364390e+003 255 255 192 153
3.404339e+000 -5.223850e+001 -1.361491e+003 255 255 192 153
-8.314869e+000 -5.028530e+001 -1.363252e+003 255 255 192 153
-6.361667e+000 -5.028530e+001 -1.366163e+003 255 255 192 153
-4.408466e+000 -4.930870e+001 -1.371057e+003 255 255 192 153
-4.408466e+000 -5.028530e+001 -1.369390e+003 255 255 192 153
-2.455265e+000 -4.948104e+001 -1.371057e+003 255 255 192 153
-5.020634e-001 -4.937380e+001 -1.371057e+003 255 255 192 153
-5.020634e-001 -5.028530e+001 -1.369429e+003 255 255 192 153
1.451138e+000 -5.028530e+001 -1.366057e+003 255 255 192 153
3.404339e+000 -5.028530e+001 -1.363307e+003 255 255 192 153
-5.168049e+000 -4.833210e+001 -1.371057e+003 255 255 192 153
-6.361667e+000 -4.833210e+001 -1.368084e+003 255 255 192 153
3.660243e-001 -4.833210e+001 -1.371057e+003 255 255 192 153
1.451138e+000 -4.833210e+001 -1.368279e+003 255 255 192 153
-8.314869e+000 -4.637889e+001 -1.363557e+003 255 255 192 153
3.404339e+000 -4.637889e+001 -1.363628e+003 255 255 192 153
3.021968e-001 -4.442571e+001 -1.371057e+003 255 255 192 153
1.451138e+000 -4.442571e+001 -1.368026e+003 255 255 192 153
-5.018848e+000 -4.247251e+001 -1.371057e+003 255 255 192 153
3.021968e-001 -4.247251e+001 -1.371057e+003 255 255 192 153
3.404339e+000 -4.247251e+001 -1.362669e+003 255 255 192 153
3.021968e-001 -4.051931e+001 -1.371057e+003 255 255 192 153
1.451138e+000 -4.051931e+001 -1.367057e+003 255 255 192 153
-5.018848e+000 -3.856610e+001 -1.371057e+003 255 255 192 153
-6.361667e+000 -3.856610e+001 -1.365267e+003 255 255 192 153
3.021968e-001 -3.856610e+001 -1.371057e+003 255 255 192 153
-5.018848e+000 -3.661290e+001 -1.371057e+003 255 255 192 153
3.021968e-001 -3.661290e+001 -1.371057e+003 255 255 192 153
1.451138e+000 -3.661290e+001 -1.363914e+003 255 255 192 153
-5.230869e+000 -3.465970e+001 -1.371057e+003 255 255 192 153
-4.408466e+000 -3.309714e+001 -1.371057e+003 255 255 192 153
4.231380e-001 -3.465970e+001 -1.371057e+003 255 255 192 153
-5.020634e-001 -3.319480e+001 -1.371057e+003 255 255 192 153
-4.408466e+000 -5.809810e+001 -1.354080e+003 255 255 192 153
-2.455265e+000 -5.809810e+001 -1.354152e+003 255 255 192 153
1.451138e+000 -5.809810e+001 -1.353102e+003 255 255 192 153
3.404339e+000 -5.809810e+001 -1.351738e+003 255 255 192 153
-8.314869e+000 -5.614490e+001 -1.355279e+003 255 255 192 153
-4.408466e+000 -5.462575e+001 -1.361057e+003 255 255 192 153
-4.408466e+000 -5.614490e+001 -1.357801e+003 255 255 192 153
-5.020634e-001 -5.462575e+001 -1.361057e+003 255 255 192 153
-5.020634e-001 -5.614490e+001 -1.357723e+003 255 255 192 153
3.404339e+000 -5.614490e+001 -1.355375e+003 255 255 192 153
5.357525e+000 -5.614490e+001 -1.352684e+003 255 255 192 153
-1.026807e+001 -5.419170e+001 -1.355723e+003 255 255 192 153
-8.314869e+000 -5.419170e+001 -1.357875e+003 255 255 192 153
-5.385074e+000 -5.419170e+001 -1.361057e+003 255 255 192 153
-6.361667e+000 -5.419170e+001 -1.360168e+003 255 255 192 153
1.451138e+000 -5.384702e+001 -1.361057e+003 255 255 192 153
1.451138e+000 -5.419170e+001 -1.360359e+003 255 255 192 153
3.404339e+000 -5.248265e+001 -1.361057e+003 255 255 192 153
3.404339e+000 -5.419170e+001 -1.357801e+003 255 255 192 153
5.357525e+000 -5.419170e+001 -1.355708e+003 255 255 192 153
7.310711e+000 -5.419170e+001 -1.352057e+003 255 255 192 153
-8.559024e+000 -5.223850e+001 -1.361057e+003 255 255 192 153
-1.026807e+001 -5.223850e+001 -1.357642e+003 255 255 192 153
3.634121e+000 -5.223850e+001 -1.361057e+003 255 255 192 153
5.357525e+000 -5.223850e+001 -1.357307e+003 255 255 192 153
7.310711e+000 -5.223850e+001 -1.353621e+003 255 255 192 153
-1.222127e+001 -5.028530e+001 -1.354840e+003 255 255 192 153
-9.413547e+000 -5.028530e+001 -1.361057e+003 255 255 192 153
5.357525e+000 -5.028530e+001 -1.359112e+003 255 255 192 153
-1.222127e+001 -4.833210e+001 -1.355111e+003 255 255 192 153
4.625103e+000 -4.833210e+001 -1.361057e+003 255 255 192 153
7.310711e+000 -4.833210e+001 -1.354945e+003 255 255 192 153
-1.026807e+001 -4.637889e+001 -1.359165e+003 255 255 192 153
-1.222127e+001 -4.442571e+001 -1.354112e+003 255 255 192 153
4.258862e+000 -4.442571e+001 -1.361057e+003 255 255 192 153
7.310711e+000 -4.442571e+001 -1.353914e+003 255 255 192 153
-8.314869e+000 -4.135639e+001 -1.361057e+003 255 255 192 153
3.404339e+000 -4.107737e+001 -1.361057e+003 255 255 192 153
-1.026807e+001 -4.051931e+001 -1.355299e+003 255 255 192 153
-7.970188e+000 -4.051931e+001 -1.361057e+003 255 255 192 153
-8.314869e+000 -4.051931e+001 -1.360022e+003 255 255 192 153
3.404339e+000 -4.051931e+001 -1.360342e+003 255 255 192 153
5.357525e+000 -4.051931e+001 -1.355250e+003 255 255 192 153
-7.338276e+000 -3.856610e+001 -1.361057e+003 255 255 192 153
2.549816e+000 -3.856610e+001 -1.361057e+003 255 255 192 153
-5.642063e+000 -3.465970e+001 -1.361057e+003 255 255 192 153
-6.361667e+000 -3.465970e+001 -1.355672e+003 255 255 192 153
-4.408466e+000 -3.309714e+001 -1.361057e+003 255 255 192 153
-5.020634e-001 -3.319480e+001 -1.361057e+003 255 255 192 153
1.451138e+000 -3.465970e+001 -1.356511e+003 255 255 192 153
-6.361667e+000 -6.395771e+001 -1.342193e+003 255 255 192 153
-5.020634e-001 -6.395771e+001 -1.342485e+003 255 255 192 153
1.451138e+000 -6.395771e+001 -1.341987e+003 255 255 192 153
-4.408466e+000 -6.200450e+001 -1.346295e+003 255 255 192 153
1.451138e+000 -6.200450e+001 -1.345708e+003 255 255 192 153
3.404339e+000 -6.200450e+001 -1.344312e+003 255 255 192 153
5.357525e+000 -6.200450e+001 -1.342723e+003 255 255 192 153
-1.222127e+001 -6.005130e+001 -1.344168e+003 255 255 192 153
-8.314869e+000 -6.005130e+001 -1.348033e+003 255 255 192 153
-4.408466e+000 -5.959172e+001 -1.351057e+003 255 255 192 153
-2.455265e+000 -6.005130e+001 -1.350342e+003 255 255 192 153
-5.020634e-001 -5.956301e+001 -1.351057e+003 255 255 192 153
1.451138e+000 -6.005130e+001 -1.349390e+003 255 255 192 153
3.404339e+000 -5.844278e+001 -1.351057e+003 255 255 192 153
7.310711e+000 -6.005130e+001 -1.343615e+003 255 255 192 153
-8.765613e+000 -5.809810e+001 -1.351057e+003 255 255 192 153
-1.026807e+001 -5.809810e+001 -1.348834e+003 255 255 192 153
3.822888e+000 -5.809810e+001 -1.351057e+003 255 255 192 153
5.357525e+000 -5.809810e+001 -1.348557e+003 255 255 192 153
9.263897e+000 -5.809810e+001 -1.343615e+003 255 255 192 153
-1.612767e+001 -5.614490e+001 -1.342807e+003 255 255 192 153
-1.417447e+001 -5.614490e+001 -1.345950e+003 255 255 192 153
-1.124468e+001 -5.614490e+001 -1.351057e+003 255 255 192 153
7.310711e+000 -5.474976e+001 -1.351057e+003 255 255 192 153
7.310711e+000 -5.614490e+001 -1.348676e+003 255 255 192 153
-1.279575e+001 -5.419170e+001 -1.351057e+003 255 255 192 153
-1.417447e+001 -5.419170e+001 -1.348057e+003 255 255 192 153
7.770275e+000 -5.419170e+001 -1.351057e+003 255 255 192 153
9.263897e+000 -5.419170e+001 -1.347723e+003 255 255 192 153
-1.808088e+001 -5.223850e+001 -1.341569e+003 255 255 192 153
-1.808088e+001 -5.028530e+001 -1.342109e+003 255 255 192 153
-1.612767e+001 -5.028530e+001 -1.346320e+003 255 255 192 153
-1.417447e+001 -5.028530e+001 -1.350530e+003 255 255 192 153
9.263897e+000 -5.028530e+001 -1.350246e+003 255 255 192 153
1.121708e+001 -5.028530e+001 -1.345921e+003 255 255 192 153
1.317027e+001 -5.028530e+001 -1.341597e+003 255 255 192 153
1.317027e+001 -4.833210e+001 -1.341612e+003 255 255 192 153
-1.808088e+001 -4.637889e+001 -1.342109e+003 255 255 192 153
-1.417447e+001 -4.637889e+001 -1.350530e+003 255 255 192 153
8.897686e+000 -4.637889e+001 -1.351057e+003 255 255 192 153
1.121708e+001 -4.637889e+001 -1.345628e+003 255 255 192 153
-1.612767e+001 -4.442571e+001 -1.345223e+003 255 255 192 153
-1.356409e+001 -4.442571e+001 -1.351057e+003 255 255 192 153
-1.417447e+001 -4.442571e+001 -1.349668e+003 255 255 192 153
9.263897e+000 -4.442571e+001 -1.349342e+003 255 255 192 153
-1.222127e+001 -4.110527e+001 -1.351057e+003 255 255 192 153
7.961773e+000 -4.247251e+001 -1.351057e+003 255 255 192 153
7.310711e+000 -4.130059e+001 -1.351057e+003 255 255 192 153
-1.612767e+001 -4.051931e+001 -1.341360e+003 255 255 192 153
-1.417447e+001 -4.051931e+001 -1.345779e+003 255 255 192 153
6.851147e+000 -4.051931e+001 -1.351057e+003 255 255 192 153
7.310711e+000 -4.051931e+001 -1.349677e+003 255 255 192 153
9.263897e+000 -4.051931e+001 -1.345342e+003 255 255 192 153
-1.417447e+001 -3.856610e+001 -1.343057e+003 255 255 192 153
-1.222127e+001 -3.856610e+001 -1.347420e+003 255 255 192 153
-1.026807e+001 -3.786853e+001 -1.351057e+003 255 255 192 153
5.357525e+000 -3.800804e+001 -1.351057e+003 255 255 192 153
7.310711e+000 -3.856610e+001 -1.347186e+003 255 255 192 153
-8.314869e+000 -3.563631e+001 -1.351057e+003 255 255 192 153
5.357525e+000 -3.661290e+001 -1.346709e+003 255 255 192 153
-8.314869e+000 -3.465970e+001 -1.346351e+003 255 255 192 153
-4.408466e+000 -3.296692e+001 -1.351057e+003 255 255 192 153
-2.455265e+000 -3.282857e+001 -1.351057e+003 255 255 192 153
2.232418e+000 -3.465970e+001 -1.351057e+003 255 255 192 153
-6.361667e+000 -6.450026e+001 -1.341057e+003 255 255 192 153
-4.408466e+000 -6.469016e+001 -1.341057e+003 255 255 192 153
-2.455265e+000 -6.481223e+001 -1.341057e+003 255 255 192 153
-5.020634e-001 -6.469016e+001 -1.341057e+003 255 255 192 153
1.451138e+000 -6.439176e+001 -1.341057e+003 255 255 192 153
-7.756809e+000 -6.395771e+001 -1.341057e+003 255 255 192 153
-8.314869e+000 -6.372792e+001 -1.341057e+003 255 255 192 153
-6.361667e+000 -6.395771e+001 -1.340681e+003 255 255 192 153
-5.020634e-001 -6.395771e+001 -1.340609e+003 255 255 192 153
5.357525e+000 -6.276409e+001 -1.341057e+003 255 255 192 153
-1.222127e+001 -6.157045e+001 -1.341057e+003 255 255 192 153
-4.408466e+000 -6.200450e+001 -1.339590e+003 255 255 192 153
-2.455265e+000 -6.200450e+001 -1.339533e+003 255 255 192 153
3.404339e+000 -6.200450e+001 -1.340071e+003 255 255 192 153
6.409252e+000 -6.200450e+001 -1.341057e+003 255 255 192 153
5.357525e+000 -6.200450e+001 -1.340538e+003 255 255 192 153
-1.417447e+001 -5.979088e+001 -1.341057e+003 255 255 192 153
-8.314869e+000 -6.005130e+001 -1.339158e+003 255 255 192 153
-4.408466e+000 -6.005130e+001 -1.338767e+003 255 255 192 153
3.404339e+000 -6.005130e+001 -1.339262e+003 255 255 192 153
9.263897e+000 -5.953044e+001 -1.341057e+003 255 255 192 153
-1.612767e+001 -5.728427e+001 -1.341057e+003 255 255 192 153
-8.314869e+000 -5.809810e+001 -1.338413e+003 255 255 192 153
-2.455265e+000 -5.809810e+001 -1.338051e+003 255 255 192 153
5.357525e+000 -5.809810e+001 -1.339007e+003 255 255 192 153
9.263897e+000 -5.809810e+001 -1.340265e+003 255 255 192 153
1.121708e+001 -5.679596e+001 -1.341057e+003 255 255 192 153
-1.417447e+001 -5.614490e+001 -1.339533e+003 255 255 192 153
-1.222127e+001 -5.614490e+001 -1.338909e+003 255 255 192 153
-4.408466e+000 -5.614490e+001 -1.337521e+003 255 255 192 153
-5.020634e-001 -5.614490e+001 -1.337521e+003 255 255 192 153
1.451138e+000 -5.614490e+001 -1.337654e+003 255 255 192 153
7.310711e+000 -5.614490e+001 -1.339057e+003 255 255 192 153
1.167665e+001 -5.614490e+001 -1.341057e+003 255 255 192 153
-1.808088e+001 -5.279656e+001 -1.341057e+003 255 255 192 153
-1.417447e+001 -5.419170e+001 -1.339262e+003 255 255 192 153
-1.026807e+001 -5.419170e+001 -1.338013e+003 255 255 192 153
-8.314869e+000 -5.419170e+001 -1.337654e+003 255 255 192 153
-6.361667e+000 -5.419170e+001 -1.337270e+003 255 255 192 153
-5.020634e-001 -5.419170e+001 -1.337038e+003 255 255 192 153
5.357525e+000 -5.419170e+001 -1.338089e+003 255 255 192 153
9.263897e+000 -5.419170e+001 -1.339368e+003 255 255 192 153
-1.831066e+001 -5.223850e+001 -1.341057e+003 255 255 192 153
-1.612767e+001 -5.223850e+001 -1.339824e+003 255 255 192 153
-8.314869e+000 -5.223850e+001 -1.337270e+003 255 255 192 153
3.404339e+000 -5.223850e+001 -1.337362e+003 255 255 192 153
1.121708e+001 -5.223850e+001 -1.340008e+003 255 255 192 153
1.317027e+001 -5.126191e+001 -1.341057e+003 255 255 192 153
-1.854045e+001 -5.028530e+001 -1.341057e+003 255 255 192 153
-1.808088e+001 -5.028530e+001 -1.340753e+003 255 255 192 153
-1.417447e+001 -5.028530e+001 -1.338861e+003 255 255 192 153
-2.455265e+000 -5.028530e+001 -1.336239e+003 255 255 192 153
1.451138e+000 -5.028530e+001 -1.336745e+003 255 255 192 153
3.404339e+000 -5.028530e+001 -1.337152e+003 255 255 192 153
9.263897e+000 -5.028530e+001 -1.338958e+003 255 255 192 153
1.340007e+001 -5.028530e+001 -1.341057e+003 255 255 192 153
-1.856917e+001 -4.833210e+001 -1.341057e+003 255 255 192 153
-1.808088e+001 -4.833210e+001 -1.340753e+003 255 255 192 153
-1.612767e+001 -4.833210e+001 -1.339705e+003 255 255 192 153
-1.026807e+001 -4.833210e+001 -1.337587e+003 255 255 192 153
-2.455265e+000 -4.833210e+001 -1.336096e+003 255 255 192 153
3.404339e+000 -4.833210e+001 -1.337152e+003 255 255 192 153
1.340007e+001 -4.833210e+001 -1.341057e+003 255 255 192 153
1.317027e+001 -4.833210e+001 -1.340903e+003 255 255 192 153
-1.854045e+001 -4.637889e+001 -1.341057e+003 255 255 192 153
-1.222127e+001 -4.637889e+001 -1.338168e+003 255 255 192 153
-1.026807e+001 -4.637889e+001 -1.337654e+003 255 255 192 153
-6.361667e+000 -4.637889e+001 -1.336875e+003 255 255 192 153
-4.408466e+000 -4.637889e+001 -1.336503e+003 255 255 192 153
7.310711e+000 -4.637889e+001 -1.338329e+003 255 255 192 153
1.121708e+001 -4.637889e+001 -1.339945e+003 255 255 192 153
-1.612767e+001 -4.442571e+001 -1.340008e+003 255 255 192 153
-1.222127e+001 -4.442571e+001 -1.338498e+003 255 255 192 153
-4.408466e+000 -4.442571e+001 -1.336901e+003 255 255 192 153
-5.020634e-001 -4.442571e+001 -1.336955e+003 255 255 192 153
5.357525e+000 -4.442571e+001 -1.337938e+003 255 255 192 153
7.310711e+000 -4.442571e+001 -1.338455e+003 255 255 192 153
-1.722635e+001 -4.247251e+001 -1.341057e+003 255 255 192 153
-1.222127e+001 -4.247251e+001 -1.338721e+003 255 255 192 153
-8.314869e+000 -4.247251e+001 -1.337723e+003 255 255 192 153
-5.020634e-001 -4.247251e+001 -1.337270e+003 255 255 192 153
3.404339e+000 -4.247251e+001 -1.337793e+003 255 255 192 153
1.219368e+001 -4.247251e+001 -1.341057e+003 255 255 192 153
1.121708e+001 -4.087444e+001 -1.341057e+003 255 255 192 153
-4.408466e+000 -4.051931e+001 -1.337793e+003 255 255 192 153
1.451138e+000 -4.051931e+001 -1.338013e+003 255 255 192 153
3.404339e+000 -4.051931e+001 -1.338413e+003 255 255 192 153
7.310711e+000 -4.051931e+001 -1.339423e+003 255 255 192 153
9.263897e+000 -4.051931e+001 -1.340008e+003 255 255 192 153
-1.222127e+001 -3.856610e+001 -1.339647e+003 255 255 192 153
-1.026807e+001 -3.856610e+001 -1.339368e+003 255 255 192 153
-6.361667e+000 -3.856610e+001 -1.338542e+003 255 255 192 153
-4.408466e+000 -3.856610e+001 -1.338413e+003 255 255 192 153
5.357525e+000 -3.856610e+001 -1.339478e+003 255 255 192 153
9.263897e+000 -3.856610e+001 -1.340827e+003 255 255 192 153
-1.287233e+001 -3.661290e+001 -1.341057e+003 255 255 192 153
-1.026807e+001 -3.488948e+001 -1.341057e+003 255 255 192 153
-1.026807e+001 -3.661290e+001 -1.340008e+003 255 255 192 153
-6.361667e+000 -3.661290e+001 -1.339315e+003 255 255 192 153
-2.455265e+000 -3.661290e+001 -1.339107e+003 255 255 192 153
-5.020634e-001 -3.661290e+001 -1.339158e+003 255 255 192 153
3.404339e+000 -3.661290e+001 -1.339533e+003 255 255 192 153
7.310711e+000 -3.624668e+001 -1.341057e+003 255 255 192 153
-8.314869e+000 -3.373450e+001 -1.341057e+003 255 255 192 153
-2.455265e+000 -3.282857e+001 -1.341057e+003 255 255 192 153
-2.455265e+000 -3.465970e+001 -1.340008e+003 255 255 192 153
3.404339e+000 -3.390012e+001 -1.341057e+003 255 255 192 153
3 23 30 0 
3 23 0 25 
3 25 0 1 
3 25 1 26 
3 26 1 2 
3 32 26 2 
3 0 30 4 
3 1 4 5 
3 1 0 4 
3 2 5 3 
3 2 1 5 
3 32 2 3 
3 3 5 6 
3 3 6 36 
3 5 38 8 
3 5 4 38 
3 6 5 8 
3 36 6 39 
3 8 38 7 
3 6 8 41 
3 39 6 41 
3 8 7 43 
3 41 8 9 
3 41 9 45 
3 10 43 46 
3 8 10 11 
3 8 43 10 
3 9 11 47 
3 9 8 11 
3 45 9 47 
3 10 46 12 
3 12 46 49 
3 11 10 12 
3 47 11 13 
3 47 13 51 
3 49 50 12 
3 12 52 11 
3 12 50 52 
3 11 52 13 
3 52 51 13 
3 58 66 14 
3 58 14 15 
3 60 15 16 
3 68 60 16 
3 17 14 74 
3 18 14 17 
3 74 14 66 
3 15 14 18 
3 16 15 18 
3 16 18 19 
3 16 19 68 
3 68 19 70 
3 70 19 20 
3 76 70 20 
3 21 74 80 
3 17 21 22 
3 17 74 21 
3 18 22 24 
3 18 17 22 
3 18 24 25 
3 18 25 27 
3 19 27 28 
3 19 18 27 
3 20 28 29 
3 20 19 28 
3 76 29 81 
3 76 20 29 
3 21 80 34 
3 22 34 31 
3 22 21 34 
3 24 31 23 
3 22 31 24 
3 23 31 30 
3 24 23 25 
3 25 26 27 
3 33 26 32 
3 33 28 27 
3 33 27 26 
3 29 28 33 
3 81 29 83 
3 30 31 4 
3 33 32 37 
3 37 32 3 
3 29 37 35 
3 29 33 37 
3 83 29 35 
3 31 89 38 
3 31 34 89 
3 4 31 38 
3 37 3 36 
3 35 37 40 
3 83 40 87 
3 83 35 40 
3 37 36 39 
3 44 89 92 
3 44 38 89 
3 38 44 7 
3 37 39 42 
3 42 39 41 
3 40 42 90 
3 37 42 40 
3 90 87 40 
3 44 92 96 
3 7 44 43 
3 42 41 48 
3 48 41 45 
3 90 48 97 
3 90 42 48 
3 44 96 98 
3 43 98 46 
3 43 44 98 
3 48 45 47 
3 97 48 101 
3 49 46 98 
3 47 101 48 
3 47 51 101 
3 98 50 49 
3 98 100 50 
3 52 50 100 
3 52 100 101 
3 52 101 51 
3 112 118 53 
3 112 53 114 
3 114 53 54 
3 114 54 115 
3 115 54 55 
3 115 55 116 
3 116 55 56 
3 120 116 56 
3 57 118 125 
3 118 57 59 
3 53 118 59 
3 54 53 59 
3 54 59 61 
3 55 54 61 
3 56 61 62 
3 56 55 61 
3 56 126 120 
3 56 62 63 
3 56 63 126 
3 128 57 125 
3 64 57 128 
3 57 64 65 
3 59 65 67 
3 59 57 65 
3 59 67 58 
3 58 67 66 
3 59 58 15 
3 59 60 61 
3 59 15 60 
3 69 60 68 
3 69 61 60 
3 62 69 71 
3 62 61 69 
3 63 71 72 
3 63 62 71 
3 63 72 73 
3 63 73 126 
3 130 126 73 
3 79 128 135 
3 64 79 75 
3 64 128 79 
3 65 75 74 
3 64 75 65 
3 65 74 67 
3 74 66 67 
3 69 70 71 
3 69 68 70 
3 77 70 76 
3 77 72 71 
3 77 71 70 
3 73 77 78 
3 73 72 77 
3 130 73 78 
3 74 75 80 
3 77 76 81 
3 78 81 84 
3 78 77 81 
3 130 84 136 
3 130 78 84 
3 79 135 82 
3 82 135 141 
3 75 79 82 
3 84 81 83 
3 75 82 85 
3 80 85 34 
3 80 75 85 
3 136 84 142 
3 82 141 86 
3 86 141 145 
3 85 82 86 
3 84 83 88 
3 142 88 147 
3 142 84 88 
3 85 86 91 
3 34 91 89 
3 34 85 91 
3 83 87 95 
3 88 83 95 
3 147 88 149 
3 145 148 86 
3 91 86 148 
3 91 93 89 
3 92 89 93 
3 94 95 90 
3 90 95 87 
3 88 95 150 
3 150 95 153 
3 150 149 88 
3 91 148 158 
3 93 91 158 
3 92 93 96 
3 94 90 97 
3 95 97 159 
3 95 94 97 
3 153 95 159 
3 99 158 161 
3 99 93 158 
3 96 99 98 
3 96 93 99 
3 159 97 101 
3 164 99 161 
3 102 166 159 
3 101 102 159 
3 164 100 99 
3 99 100 98 
3 100 164 165 
3 101 100 165 
3 101 165 166 
3 101 166 102 
3 167 172 103 
3 167 103 168 
3 169 168 170 
3 170 168 104 
3 170 104 171 
3 171 104 105 
3 176 171 105 
3 177 103 173 
3 106 103 177 
3 173 103 172 
3 168 103 106 
3 168 106 107 
3 104 168 107 
3 105 104 107 
3 105 107 108 
3 105 108 176 
3 176 108 109 
3 181 176 109 
3 177 183 110 
3 177 110 111 
3 106 111 112 
3 106 177 111 
3 107 112 113 
3 107 106 112 
3 107 113 114 
3 107 114 115 
3 108 107 115 
3 109 115 117 
3 109 108 115 
3 109 187 181 
3 109 117 187 
3 183 188 124 
3 124 110 183 
3 111 119 118 
3 110 119 111 
3 111 118 112 
3 112 114 113 
3 121 116 120 
3 121 117 115 
3 121 115 116 
3 117 122 187 
3 193 187 122 
3 123 124 188 
3 110 124 125 
3 110 125 119 
3 125 118 119 
3 120 126 121 
3 127 117 121 
3 127 121 126 
3 122 117 127 
3 123 188 201 
3 124 123 129 
3 124 129 125 
3 125 129 128 
3 131 126 130 
3 131 122 127 
3 131 127 126 
3 193 131 200 
3 193 122 131 
3 201 209 132 
3 132 123 201 
3 134 123 132 
3 129 123 134 
3 128 129 135 
3 132 209 133 
3 133 209 215 
3 134 132 133 
3 129 134 135 
3 131 130 136 
3 200 136 137 
3 200 131 136 
3 200 137 138 
3 200 138 214 
3 222 214 138 
3 133 215 223 
3 134 223 144 
3 134 133 223 
3 135 144 141 
3 135 134 144 
3 137 136 143 
3 138 143 139 
3 138 137 143 
3 222 139 229 
3 222 138 139 
3 140 223 231 
3 144 223 140 
3 143 136 142 
3 139 143 249 
3 229 139 249 
3 231 244 140 
3 144 140 244 
3 141 144 146 
3 141 146 145 
3 143 142 147 
3 146 144 152 
3 145 146 152 
3 155 147 149 
3 143 147 155 
3 144 244 151 
3 152 144 151 
3 152 148 145 
3 150 153 154 
3 154 155 150 
3 150 155 149 
3 143 155 250 
3 250 249 143 
3 156 152 151 
3 148 156 157 
3 148 152 156 
3 148 157 158 
3 154 153 160 
3 160 153 159 
3 155 160 261 
3 155 154 160 
3 250 155 261 
3 262 157 156 
3 262 156 151 
3 161 158 157 
3 162 160 159 
3 261 160 162 
3 262 263 157 
3 163 161 157 
3 163 157 263 
3 164 161 163 
3 159 166 162 
3 162 269 261 
3 162 273 269 
3 263 270 163 
3 270 164 163 
3 165 270 271 
3 165 164 270 
3 166 165 271 
3 166 271 273 
3 166 273 162 
3 172 167 174 
3 174 168 169 
3 174 167 168 
3 169 170 175 
3 175 170 171 
3 177 173 184 
3 174 173 172 
3 174 184 173 
3 174 169 184 
3 184 169 178 
3 178 169 179 
3 169 175 179 
3 175 171 179 
3 179 171 180 
3 180 171 176 
3 180 176 182 
3 176 181 182 
3 184 194 177 
3 184 178 185 
3 178 179 185 
3 179 180 186 
3 180 182 186 
3 192 182 187 
3 186 182 192 
3 187 182 181 
3 188 183 194 
3 177 194 183 
3 194 184 189 
3 189 184 185 
3 185 179 190 
3 179 186 190 
3 190 186 191 
3 186 192 191 
3 187 193 192 
3 194 189 195 
3 195 189 204 
3 189 185 204 
3 204 185 196 
3 185 190 196 
3 196 190 197 
3 197 190 198 
3 190 191 198 
3 191 192 199 
3 199 192 208 
3 200 192 193 
3 208 192 200 
3 188 194 201 
3 201 194 202 
3 194 195 202 
3 195 204 203 
3 204 196 205 
3 196 197 205 
3 197 198 206 
3 198 191 206 
3 206 191 212 
3 212 191 207 
3 191 199 207 
3 201 210 209 
3 201 202 210 
3 195 203 217 
3 203 204 217 
3 217 204 211 
3 204 205 211 
3 211 205 218 
3 205 197 218 
3 197 206 218 
3 218 206 219 
3 206 212 219 
3 207 199 221 
3 199 208 221 
3 208 200 221 
3 221 200 213 
3 213 200 214 
3 209 216 215 
3 209 210 216 
3 210 202 217 
3 202 195 217 
3 219 212 220 
3 212 207 220 
3 214 222 213 
3 215 224 223 
3 215 216 224 
3 216 210 224 
3 224 210 225 
3 210 217 225 
3 232 217 226 
3 217 211 226 
3 234 211 235 
3 211 218 235 
3 235 218 227 
3 227 218 241 
3 218 219 241 
3 219 220 228 
3 220 207 228 
3 207 221 228 
3 228 221 236 
3 221 213 230 
3 213 222 230 
3 230 222 229 
3 223 224 231 
3 224 225 231 
3 231 225 238 
3 225 217 238 
3 238 217 232 
3 232 226 233 
3 226 211 233 
3 227 241 235 
3 241 219 228 
3 221 230 237 
3 237 230 249 
3 230 229 249 
3 231 238 244 
3 238 232 239 
3 232 233 239 
3 233 211 246 
3 211 234 246 
3 246 234 240 
3 234 235 240 
3 240 235 241 
3 248 228 242 
3 228 236 242 
3 242 236 243 
3 236 221 243 
3 243 221 237 
3 238 239 245 
3 239 233 245 
3 240 241 246 
3 241 228 247 
3 228 248 247 
3 248 242 253 
3 242 243 253 
3 243 237 255 
3 255 237 249 
3 244 238 151 
3 151 238 256 
3 238 245 256 
3 245 233 256 
3 233 246 256 
3 256 246 257 
3 257 246 251 
3 246 241 251 
3 241 247 251 
3 251 247 252 
3 247 248 252 
3 252 248 253 
3 253 243 254 
3 243 255 254 
3 255 249 250 
3 257 251 258 
3 258 251 259 
3 251 252 259 
3 252 253 267 
3 253 254 267 
3 267 254 260 
3 254 255 260 
3 260 255 261 
3 255 250 261 
3 256 262 151 
3 256 257 262 
3 262 257 264 
3 257 258 264 
3 264 258 265 
3 258 259 265 
3 265 259 266 
3 259 252 266 
3 266 252 267 
3 267 260 268 
3 269 260 261 
3 263 262 264 
3 264 270 263 
3 264 265 270 
3 265 266 272 
3 266 267 272 
3 267 268 272 
3 273 268 260 
3 273 260 269 
3 270 265 271 
3 271 265 272 
3 271 272 268 
3 271 268 273 
