ply
format ascii 1.0
element vertex 221
property float x
property float y
property float z
property uchar red
property uchar green
property uchar blue
property uchar alpha
element face 438
property list uchar int vertex_indices
end_header
-2.455265e+000 -4.637889e+001 -1.371286e+003 255 128 192 153
-5.020634e-001 -4.637889e+001 -1.371432e+003 255 128 192 153
1.451138e+000 -4.637889e+001 -1.371286e+003 255 128 192 153
-2.455265e+000 -4.442571e+001 -1.371286e+003 255 128 192 153
1.451138e+000 -4.442571e+001 -1.371286e+003 255 128 192 153
-5.020634e-001 -4.247251e+001 -1.372349e+003 255 128 192 153
-2.455265e+000 -4.051931e+001 -1.371286e+003 255 128 192 153
1.451138e+000 -4.051931e+001 -1.371286e+003 255 128 192 153
-5.020634e-001 -3.856610e+001 -1.372349e+003 255 128 192 153
-2.455265e+000 -3.661290e+001 -1.371286e+003 255 128 192 153
-5.020634e-001 -3.661290e+001 -1.371504e+003 255 128 192 153
1.451138e+000 -3.661290e+001 -1.371286e+003 255 128 192 153
-4.408466e+000 -5.028530e+001 -1.363150e+003 255 128 192 153
-2.455265e+000 -5.028530e+001 -1.363983e+003 255 128 192 153
1.451138e+000 -5.028530e+001 -1.363983e+003 255 128 192 153
3.404339e+000 -5.028530e+001 -1.362764e+003 255 128 192 153
-6.361667e+000 -4.833210e+001 -1.362961e+003 255 128 192 153
-4.408466e+000 -4.833210e+001 -1.365954e+003 255 128 192 153
-2.455265e+000 -4.674512e+001 -1.371057e+003 255 128 192 153
-2.455265e+000 -4.833210e+001 -1.367886e+003 255 128 192 153
-5.020634e-001 -4.833210e+001 -1.368307e+003 255 128 192 153
1.451138e+000 -4.674512e+001 -1.371057e+003 255 128 192 153
1.451138e+000 -4.833210e+001 -1.367886e+003 255 128 192 153
-6.361667e+000 -4.637889e+001 -1.363621e+003 255 128 192 153
-2.821491e+000 -4.637889e+001 -1.371057e+003 255 128 192 153
-4.408466e+000 -4.637889e+001 -1.367723e+003 255 128 192 153
1.817364e+000 -4.637889e+001 -1.371057e+003 255 128 192 153
3.404339e+000 -4.637889e+001 -1.367342e+003 255 128 192 153
5.357525e+000 -4.637889e+001 -1.362771e+003 255 128 192 153
-2.821491e+000 -4.442571e+001 -1.371057e+003 255 128 192 153
3.404339e+000 -4.442571e+001 -1.366994e+003 255 128 192 153
-4.408466e+000 -4.247251e+001 -1.366414e+003 255 128 192 153
3.404339e+000 -4.247251e+001 -1.365857e+003 255 128 192 153
3.404339e+000 -4.051931e+001 -1.364866e+003 255 128 192 153
-2.821491e+000 -3.661290e+001 -1.371057e+003 255 128 192 153
-2.455265e+000 -3.622226e+001 -1.371057e+003 255 128 192 153
-5.020634e-001 -3.588045e+001 -1.371057e+003 255 128 192 153
1.817364e+000 -3.661290e+001 -1.371057e+003 255 128 192 153
1.451138e+000 -3.624668e+001 -1.371057e+003 255 128 192 153
-5.020634e-001 -5.614490e+001 -1.351826e+003 255 128 192 153
-4.408466e+000 -5.419170e+001 -1.355104e+003 255 128 192 153
-5.020634e-001 -5.419170e+001 -1.355928e+003 255 128 192 153
-8.314869e+000 -5.223850e+001 -1.355656e+003 255 128 192 153
-6.361667e+000 -5.223850e+001 -1.356771e+003 255 128 192 153
-4.408466e+000 -5.223850e+001 -1.358914e+003 255 128 192 153
1.451138e+000 -5.223850e+001 -1.359774e+003 255 128 192 153
3.404339e+000 -5.108956e+001 -1.361057e+003 255 128 192 153
3.404339e+000 -5.223850e+001 -1.358617e+003 255 128 192 153
5.357525e+000 -5.223850e+001 -1.355958e+003 255 128 192 153
7.310711e+000 -5.223850e+001 -1.354461e+003 255 128 192 153
-8.314869e+000 -5.028530e+001 -1.356771e+003 255 128 192 153
-6.361667e+000 -4.953406e+001 -1.361057e+003 255 128 192 153
-6.361667e+000 -5.028530e+001 -1.360036e+003 255 128 192 153
-1.026807e+001 -4.833210e+001 -1.354646e+003 255 128 192 153
-7.280826e+000 -4.833210e+001 -1.361057e+003 255 128 192 153
-8.314869e+000 -4.833210e+001 -1.358749e+003 255 128 192 153
5.723736e+000 -4.833210e+001 -1.361057e+003 255 128 192 153
7.310711e+000 -4.833210e+001 -1.357445e+003 255 128 192 153
9.263897e+000 -4.833210e+001 -1.353001e+003 255 128 192 153
-7.510608e+000 -4.637889e+001 -1.361057e+003 255 128 192 153
-1.026807e+001 -4.442571e+001 -1.354715e+003 255 128 192 153
-8.314869e+000 -4.442571e+001 -1.358617e+003 255 128 192 153
-6.361667e+000 -4.268953e+001 -1.361057e+003 255 128 192 153
5.357525e+000 -4.377465e+001 -1.361057e+003 255 128 192 153
7.310711e+000 -4.442571e+001 -1.357168e+003 255 128 192 153
9.263897e+000 -4.442571e+001 -1.353162e+003 255 128 192 153
-1.026807e+001 -4.247251e+001 -1.353784e+003 255 128 192 153
4.706463e+000 -4.247251e+001 -1.361057e+003 255 128 192 153
5.357525e+000 -4.247251e+001 -1.359057e+003 255 128 192 153
-6.361667e+000 -4.051931e+001 -1.358329e+003 255 128 192 153
3.404339e+000 -3.878313e+001 -1.361057e+003 255 128 192 153
5.357525e+000 -4.051931e+001 -1.357128e+003 255 128 192 153
7.310711e+000 -4.051931e+001 -1.352057e+003 255 128 192 153
3.282269e+000 -3.856610e+001 -1.361057e+003 255 128 192 153
-3.236545e+000 -3.661290e+001 -1.361057e+003 255 128 192 153
-2.455265e+000 -3.596184e+001 -1.361057e+003 255 128 192 153
1.451138e+000 -3.603843e+001 -1.361057e+003 255 128 192 153
-4.408466e+000 -6.005130e+001 -1.343437e+003 255 128 192 153
1.451138e+000 -6.005130e+001 -1.343557e+003 255 128 192 153
-1.222127e+001 -5.809810e+001 -1.341482e+003 255 128 192 153
-1.026807e+001 -5.809810e+001 -1.343784e+003 255 128 192 153
-8.314869e+000 -5.809810e+001 -1.345525e+003 255 128 192 153
-2.455265e+000 -5.809810e+001 -1.347557e+003 255 128 192 153
1.451138e+000 -5.809810e+001 -1.347557e+003 255 128 192 153
3.404339e+000 -5.625980e+001 -1.351057e+003 255 128 192 153
7.310711e+000 -5.809810e+001 -1.344312e+003 255 128 192 153
9.263897e+000 -5.809810e+001 -1.342339e+003 255 128 192 153
-1.222127e+001 -5.614490e+001 -1.344886e+003 255 128 192 153
-1.026807e+001 -5.614490e+001 -1.346057e+003 255 128 192 153
-8.314869e+000 -5.614490e+001 -1.348557e+003 255 128 192 153
7.310711e+000 -5.465128e+001 -1.351057e+003 255 128 192 153
7.310711e+000 -5.614490e+001 -1.347807e+003 255 128 192 153
1.121708e+001 -5.614490e+001 -1.342807e+003 255 128 192 153
-1.417447e+001 -5.419170e+001 -1.343615e+003 255 128 192 153
-1.222127e+001 -5.419170e+001 -1.346163e+003 255 128 192 153
-1.026807e+001 -5.321511e+001 -1.351057e+003 255 128 192 153
1.121708e+001 -5.419170e+001 -1.345159e+003 255 128 192 153
-1.417447e+001 -5.223850e+001 -1.344866e+003 255 128 192 153
-1.102765e+001 -5.223850e+001 -1.351057e+003 255 128 192 153
-1.222127e+001 -5.223850e+001 -1.348498e+003 255 128 192 153
9.263897e+000 -5.199434e+001 -1.351057e+003 255 128 192 153
1.121708e+001 -5.223850e+001 -1.346698e+003 255 128 192 153
-1.612767e+001 -5.028530e+001 -1.342032e+003 255 128 192 153
1.317027e+001 -5.028530e+001 -1.343759e+003 255 128 192 153
1.006816e+001 -4.833210e+001 -1.351057e+003 255 128 192 153
1.317027e+001 -4.833210e+001 -1.344029e+003 255 128 192 153
-1.417447e+001 -4.637889e+001 -1.346583e+003 255 128 192 153
-1.222127e+001 -4.637889e+001 -1.350793e+003 255 128 192 153
-1.612767e+001 -4.442571e+001 -1.342372e+003 255 128 192 153
1.121708e+001 -4.442571e+001 -1.348409e+003 255 128 192 153
1.317027e+001 -4.442571e+001 -1.343704e+003 255 128 192 153
-1.417447e+001 -4.247251e+001 -1.345111e+003 255 128 192 153
-1.222127e+001 -4.247251e+001 -1.349390e+003 255 128 192 153
-1.026807e+001 -4.066956e+001 -1.351057e+003 255 128 192 153
1.121708e+001 -4.247251e+001 -1.346645e+003 255 128 192 153
-1.417447e+001 -4.051931e+001 -1.343342e+003 255 128 192 153
-1.222127e+001 -4.051931e+001 -1.346807e+003 255 128 192 153
-1.026807e+001 -3.856610e+001 -1.345573e+003 255 128 192 153
-8.314869e+000 -3.856610e+001 -1.349693e+003 255 128 192 153
7.310711e+000 -3.856610e+001 -1.344970e+003 255 128 192 153
9.263897e+000 -3.856610e+001 -1.342168e+003 255 128 192 153
-8.314869e+000 -3.661290e+001 -1.342420e+003 255 128 192 153
-6.361667e+000 -3.661290e+001 -1.344586e+003 255 128 192 153
-2.455265e+000 -3.592354e+001 -1.351057e+003 255 128 192 153
3.187313e+000 -3.661290e+001 -1.351057e+003 255 128 192 153
1.451138e+000 -3.579050e+001 -1.351057e+003 255 128 192 153
-2.455265e+000 -6.127205e+001 -1.341057e+003 255 128 192 153
1.451138e+000 -6.127205e+001 -1.341057e+003 255 128 192 153
5.357525e+000 -6.081089e+001 -1.341057e+003 255 128 192 153
-9.202686e+000 -6.005130e+001 -1.341057e+003 255 128 192 153
-1.026807e+001 -5.940024e+001 -1.341057e+003 255 128 192 153
-8.314869e+000 -6.005130e+001 -1.340681e+003 255 128 192 153
-6.361667e+000 -6.005130e+001 -1.340468e+003 255 128 192 153
-5.020634e-001 -6.005130e+001 -1.340332e+003 255 128 192 153
5.357525e+000 -6.005130e+001 -1.340538e+003 255 128 192 153
9.263897e+000 -5.870848e+001 -1.341057e+003 255 128 192 153
-1.246543e+001 -5.809810e+001 -1.341057e+003 255 128 192 153
-8.314869e+000 -5.809810e+001 -1.339647e+003 255 128 192 153
-6.361667e+000 -5.809810e+001 -1.339478e+003 255 128 192 153
-2.455265e+000 -5.809810e+001 -1.339368e+003 255 128 192 153
5.357525e+000 -5.809810e+001 -1.339533e+003 255 128 192 153
9.914959e+000 -5.809810e+001 -1.341057e+003 255 128 192 153
9.263897e+000 -5.809810e+001 -1.340681e+003 255 128 192 153
1.121708e+001 -5.694916e+001 -1.341057e+003 255 128 192 153
-1.441863e+001 -5.614490e+001 -1.341057e+003 255 128 192 153
-1.417447e+001 -5.614490e+001 -1.340903e+003 255 128 192 153
-1.026807e+001 -5.614490e+001 -1.339533e+003 255 128 192 153
-8.314869e+000 -5.614490e+001 -1.339007e+003 255 128 192 153
3.404339e+000 -5.614490e+001 -1.338630e+003 255 128 192 153
7.310711e+000 -5.614490e+001 -1.339315e+003 255 128 192 153
-1.417447e+001 -5.419170e+001 -1.340265e+003 255 128 192 153
-1.026807e+001 -5.419170e+001 -1.338721e+003 255 128 192 153
-4.408466e+000 -5.419170e+001 -1.337938e+003 255 128 192 153
-5.020634e-001 -5.419170e+001 -1.337938e+003 255 128 192 153
1.451138e+000 -5.419170e+001 -1.337938e+003 255 128 192 153
7.310711e+000 -5.419170e+001 -1.338542e+003 255 128 192 153
1.317027e+001 -5.419170e+001 -1.341057e+003 255 128 192 153
-1.612767e+001 -5.223850e+001 -1.341057e+003 255 128 192 153
-1.417447e+001 -5.223850e+001 -1.339945e+003 255 128 192 153
-8.314869e+000 -5.223850e+001 -1.337829e+003 255 128 192 153
-5.020634e-001 -5.223850e+001 -1.337393e+003 255 128 192 153
1.451138e+000 -5.223850e+001 -1.337393e+003 255 128 192 153
9.263897e+000 -5.223850e+001 -1.338767e+003 255 128 192 153
1.419828e+001 -5.223850e+001 -1.341057e+003 255 128 192 153
-1.661597e+001 -5.028530e+001 -1.341057e+003 255 128 192 153
-1.026807e+001 -5.028530e+001 -1.338168e+003 255 128 192 153
-4.408466e+000 -5.028530e+001 -1.336982e+003 255 128 192 153
-5.020634e-001 -5.028530e+001 -1.336928e+003 255 128 192 153
5.357525e+000 -5.028530e+001 -1.337489e+003 255 128 192 153
7.310711e+000 -5.028530e+001 -1.337938e+003 255 128 192 153
1.439103e+001 -5.028530e+001 -1.341057e+003 255 128 192 153
1.317027e+001 -5.028530e+001 -1.340332e+003 255 128 192 153
-1.673806e+001 -4.833210e+001 -1.341057e+003 255 128 192 153
-1.612767e+001 -4.833210e+001 -1.340681e+003 255 128 192 153
-8.314869e+000 -4.833210e+001 -1.337554e+003 255 128 192 153
-4.408466e+000 -4.833210e+001 -1.336646e+003 255 128 192 153
-2.455265e+000 -4.833210e+001 -1.336622e+003 255 128 192 153
3.404339e+000 -4.833210e+001 -1.336901e+003 255 128 192 153
1.443409e+001 -4.833210e+001 -1.341057e+003 255 128 192 153
-1.222127e+001 -4.637889e+001 -1.338814e+003 255 128 192 153
-6.361667e+000 -4.637889e+001 -1.337066e+003 255 128 192 153
1.121708e+001 -4.637889e+001 -1.339368e+003 255 128 192 153
1.317027e+001 -4.637889e+001 -1.340332e+003 255 128 192 153
-1.667023e+001 -4.442571e+001 -1.341057e+003 255 128 192 153
-1.612767e+001 -4.303057e+001 -1.341057e+003 255 128 192 153
-8.314869e+000 -4.442571e+001 -1.337654e+003 255 128 192 153
-4.408466e+000 -4.442571e+001 -1.337521e+003 255 128 192 153
-2.455265e+000 -4.442571e+001 -1.337521e+003 255 128 192 153
3.404339e+000 -4.442571e+001 -1.337621e+003 255 128 192 153
9.263897e+000 -4.442571e+001 -1.338630e+003 255 128 192 153
1.426893e+001 -4.442571e+001 -1.341057e+003 255 128 192 153
-1.417447e+001 -4.247251e+001 -1.340008e+003 255 128 192 153
-1.026807e+001 -4.247251e+001 -1.338455e+003 255 128 192 153
-6.361667e+000 -4.247251e+001 -1.338089e+003 255 128 192 153
-5.020634e-001 -4.247251e+001 -1.338089e+003 255 128 192 153
1.451138e+000 -4.247251e+001 -1.338089e+003 255 128 192 153
1.317027e+001 -4.198421e+001 -1.341057e+003 255 128 192 153
1.317027e+001 -4.247251e+001 -1.340827e+003 255 128 192 153
-1.417447e+001 -3.947760e+001 -1.341057e+003 255 128 192 153
-1.222127e+001 -4.051931e+001 -1.339533e+003 255 128 192 153
-8.314869e+000 -4.051931e+001 -1.338909e+003 255 128 192 153
-2.455265e+000 -4.051931e+001 -1.338767e+003 255 128 192 153
5.357525e+000 -4.051931e+001 -1.339158e+003 255 128 192 153
9.263897e+000 -4.051931e+001 -1.339764e+003 255 128 192 153
1.121708e+001 -3.954271e+001 -1.341057e+003 255 128 192 153
-1.319788e+001 -3.856610e+001 -1.341057e+003 255 128 192 153
-1.222127e+001 -3.856610e+001 -1.340538e+003 255 128 192 153
-1.026807e+001 -3.704695e+001 -1.341057e+003 255 128 192 153
1.451138e+000 -3.856610e+001 -1.339590e+003 255 128 192 153
5.357525e+000 -3.684269e+001 -1.341057e+003 255 128 192 153
7.310711e+000 -3.746743e+001 -1.341057e+003 255 128 192 153
9.752209e+000 -3.856610e+001 -1.341057e+003 255 128 192 153
9.263897e+000 -3.822142e+001 -1.341057e+003 255 128 192 153
9.263897e+000 -3.856610e+001 -1.340827e+003 255 128 192 153
-8.314869e+000 -3.628737e+001 -1.341057e+003 255 128 192 153
-8.314869e+000 -3.661290e+001 -1.340827e+003 255 128 192 153
-6.361667e+000 -3.588045e+001 -1.341057e+003 255 128 192 153
-2.455265e+000 -3.588045e+001 -1.341057e+003 255 128 192 153
-5.020634e-001 -3.588045e+001 -1.341057e+003 255 128 192 153
-5.020634e-001 -3.661290e+001 -1.340609e+003 255 128 192 153
3.404339e+000 -3.607035e+001 -1.341057e+003 255 128 192 153
3 18 24 0 
3 18 0 1 
3 21 1 2 
3 26 21 2 
3 0 24 3 
3 3 24 29 
3 1 3 5 
3 1 0 3 
3 2 5 4 
3 2 1 5 
3 26 2 4 
3 3 29 6 
3 5 3 6 
3 4 5 7 
3 5 6 8 
3 7 5 8 
3 9 6 34 
3 8 9 10 
3 8 6 9 
3 7 10 11 
3 7 8 10 
3 7 11 37 
3 34 35 9 
3 9 36 10 
3 9 35 36 
3 10 38 11 
3 10 36 38 
3 38 37 11 
3 44 52 12 
3 44 12 45 
3 45 12 13 
3 45 13 14 
3 45 14 46 
3 46 14 15 
3 51 54 16 
3 16 12 51 
3 17 12 16 
3 51 12 52 
3 13 17 19 
3 13 12 17 
3 13 19 20 
3 14 20 22 
3 14 13 20 
3 15 14 22 
3 15 22 56 
3 16 54 23 
3 23 54 59 
3 17 23 25 
3 17 16 23 
3 19 25 18 
3 17 25 19 
3 18 25 24 
3 19 1 20 
3 19 18 1 
3 20 21 22 
3 20 1 21 
3 27 21 26 
3 27 22 21 
3 56 27 28 
3 56 22 27 
3 23 59 62 
3 25 23 62 
3 24 25 29 
3 27 26 30 
3 30 26 4 
3 28 30 63 
3 28 27 30 
3 31 25 62 
3 29 31 6 
3 29 25 31 
3 30 4 32 
3 30 32 63 
3 63 32 67 
3 32 4 33 
3 33 4 7 
3 67 33 70 
3 67 32 33 
3 62 74 31 
3 74 6 31 
3 7 70 33 
3 7 73 70 
3 6 74 34 
3 73 7 76 
3 76 7 37 
3 74 35 34 
3 74 75 35 
3 36 35 75 
3 38 75 76 
3 38 36 75 
3 38 76 37 
3 40 39 95 
3 39 40 41 
3 84 39 41 
3 42 95 98 
3 40 42 43 
3 40 95 42 
3 40 43 44 
3 40 44 45 
3 41 40 45 
3 84 45 47 
3 84 41 45 
3 84 47 48 
3 90 48 49 
3 90 84 48 
3 90 49 100 
3 42 53 50 
3 42 98 53 
3 43 50 52 
3 43 42 50 
3 43 52 44 
3 45 46 47 
3 56 46 15 
3 56 48 47 
3 56 47 46 
3 49 56 57 
3 49 48 56 
3 49 57 100 
3 53 98 99 
3 50 53 55 
3 52 55 51 
3 50 55 52 
3 51 55 54 
3 100 57 58 
3 100 58 104 
3 53 99 60 
3 60 99 107 
3 55 53 60 
3 54 55 59 
3 57 56 64 
3 64 56 28 
3 58 57 64 
3 55 60 61 
3 59 61 62 
3 59 55 61 
3 64 28 63 
3 58 64 65 
3 104 65 109 
3 104 58 65 
3 60 107 66 
3 66 107 112 
3 61 60 66 
3 63 67 68 
3 68 64 63 
3 65 64 72 
3 109 65 72 
3 112 113 66 
3 62 66 69 
3 62 61 66 
3 68 67 71 
3 71 67 70 
3 64 71 72 
3 64 68 71 
3 113 118 66 
3 69 74 62 
3 69 66 74 
3 124 71 70 
3 71 124 72 
3 118 123 66 
3 123 74 66 
3 73 124 70 
3 73 76 124 
3 123 75 74 
3 76 123 125 
3 76 75 123 
3 125 124 76 
3 126 129 77 
3 126 77 127 
3 127 78 128 
3 136 79 130 
3 130 79 80 
3 80 129 130 
3 81 129 80 
3 77 81 82 
3 77 129 81 
3 127 77 82 
3 78 82 83 
3 78 127 82 
3 128 83 91 
3 128 78 83 
3 128 91 85 
3 128 85 135 
3 135 85 86 
3 141 135 86 
3 144 79 136 
3 80 87 88 
3 80 79 87 
3 81 88 89 
3 81 80 88 
3 81 89 39 
3 81 39 82 
3 82 84 83 
3 82 39 84 
3 91 83 84 
3 86 85 91 
3 86 143 141 
3 86 91 92 
3 86 92 143 
3 79 144 93 
3 93 144 157 
3 87 93 94 
3 87 79 93 
3 88 94 95 
3 88 87 94 
3 88 95 89 
3 89 95 39 
3 84 90 91 
3 96 91 90 
3 92 91 96 
3 92 156 143 
3 92 96 156 
3 97 93 157 
3 94 97 99 
3 94 93 97 
3 94 99 95 
3 95 99 98 
3 96 90 100 
3 96 100 101 
3 156 101 103 
3 156 96 101 
3 156 103 163 
3 102 157 164 
3 97 157 102 
3 104 101 100 
3 103 101 104 
3 163 103 170 
3 102 164 172 
3 97 172 106 
3 97 102 172 
3 99 97 106 
3 103 104 105 
3 170 105 178 
3 170 103 105 
3 99 106 107 
3 105 109 110 
3 105 104 109 
3 178 105 110 
3 108 172 183 
3 106 108 111 
3 106 172 108 
3 107 106 111 
3 178 110 190 
3 183 184 108 
3 111 108 184 
3 107 111 112 
3 114 109 72 
3 110 114 196 
3 110 109 114 
3 190 110 196 
3 111 184 115 
3 115 184 198 
3 112 115 116 
3 112 111 115 
3 112 116 113 
3 119 114 72 
3 117 198 205 
3 117 116 115 
3 117 115 198 
3 113 116 117 
3 113 117 118 
3 72 124 119 
3 114 120 204 
3 119 120 114 
3 204 120 211 
3 204 196 114 
3 117 205 207 
3 121 118 117 
3 121 117 207 
3 118 121 122 
3 118 122 123 
3 209 124 125 
3 124 209 210 
3 124 210 119 
3 119 212 120 
3 119 210 212 
3 212 211 120 
3 207 214 121 
3 121 216 122 
3 121 214 216 
3 216 123 122 
3 123 216 217 
3 123 217 218 
3 125 123 218 
3 125 218 220 
3 220 209 125 
3 131 126 132 
3 131 129 126 
3 132 126 138 
3 138 126 133 
3 133 126 127 
3 127 128 134 
3 128 135 134 
3 131 130 129 
3 131 137 130 
3 131 132 137 
3 137 132 138 
3 138 133 139 
3 133 127 139 
3 127 134 139 
3 142 134 135 
3 140 134 142 
3 135 141 142 
3 136 146 145 
3 136 145 144 
3 136 130 146 
3 130 137 146 
3 146 137 147 
3 137 138 147 
3 147 138 139 
3 139 134 148 
3 134 140 148 
3 140 142 148 
3 148 142 149 
3 149 142 143 
3 143 142 141 
3 144 150 157 
3 144 145 150 
3 145 146 150 
3 150 146 151 
3 146 147 151 
3 147 139 151 
3 151 139 159 
3 159 139 152 
3 139 148 152 
3 152 148 153 
3 153 148 154 
3 154 148 155 
3 148 149 155 
3 149 143 155 
3 150 158 157 
3 158 150 165 
3 150 151 165 
3 159 152 166 
3 166 152 160 
3 152 153 160 
3 153 154 160 
3 160 154 161 
3 154 155 161 
3 161 155 168 
3 155 143 162 
3 162 143 171 
3 143 156 171 
3 171 156 163 
3 157 158 164 
3 151 159 165 
3 159 166 174 
3 166 160 167 
3 160 161 167 
3 167 161 168 
3 168 155 169 
3 155 162 169 
3 171 163 170 
3 164 173 172 
3 164 158 173 
3 158 165 173 
3 173 165 179 
3 165 159 174 
3 174 166 180 
3 180 166 175 
3 175 166 176 
3 166 167 176 
3 167 168 176 
3 176 168 177 
3 177 168 188 
3 168 169 188 
3 162 171 169 
3 169 171 181 
3 171 170 178 
3 172 173 191 
3 165 174 179 
3 175 176 180 
3 188 169 189 
3 181 171 182 
3 171 178 182 
3 172 191 183 
3 173 179 191 
3 191 179 199 
3 179 174 185 
3 174 180 185 
3 185 180 186 
3 186 180 187 
3 180 176 187 
3 176 177 187 
3 187 177 188 
3 169 181 189 
3 181 182 190 
3 182 178 190 
3 184 183 191 
3 199 179 192 
3 179 185 192 
3 185 186 192 
3 192 186 193 
3 193 186 194 
3 186 187 194 
3 187 188 194 
3 194 188 195 
3 188 189 195 
3 195 189 202 
3 189 181 197 
3 181 190 197 
3 197 190 196 
3 184 191 198 
3 191 199 198 
3 199 192 200 
3 192 193 200 
3 193 194 200 
3 200 194 201 
3 194 195 201 
3 201 195 202 
3 202 189 203 
3 189 197 203 
3 203 197 196 
3 199 206 198 
3 198 206 205 
3 199 200 206 
3 206 200 215 
3 200 201 215 
3 201 202 208 
3 202 203 208 
3 208 203 210 
3 210 203 213 
3 213 204 211 
3 213 203 204 
3 196 204 203 
3 205 206 207 
3 206 215 207 
3 215 201 216 
3 216 201 217 
3 201 208 217 
3 217 208 219 
3 219 208 218 
3 218 208 220 
3 220 208 209 
3 209 208 210 
3 212 210 213 
3 211 212 213 
3 214 207 215 
3 214 215 216 
3 218 217 219 
